<svg width="29" height="27" viewBox="0 0 29 27" fill="none" xmlns="http://www.w3.org/2000/svg">
<path d="M17.1685 5.14723L14.3188 9.85637C13.8426 10.6424 12.7104 10.6614 12.2066 9.89273L11.2544 8.43671C10.7557 7.67493 9.63558 7.68532 9.15255 8.45748L6.5781 12.5659C6.07949 13.3623 4.91086 13.3415 4.43995 12.5278L0.168825 5.12473C-0.310745 4.2937 0.288285 3.25319 1.24916 3.25319H16.102C17.0733 3.25319 17.6723 4.31621 17.1685 5.14723Z" fill="url(#paint0_linear_747_516)"/>
<path d="M28.3518 1.8716C28.3522 1.8716 28.3524 1.87202 28.3522 1.87235L14.4018 26.0354C13.9223 26.8664 12.7207 26.8664 12.2412 26.0354L6.8724 16.7366C6.64213 16.3366 6.65079 15.8415 6.8949 15.4502L9.18542 11.7954C9.66845 11.0233 10.7886 11.0129 11.2872 11.7746L12.2654 13.2722C12.7675 14.0409 13.9015 14.0219 14.3776 13.2359L22.0248 0.600823C22.2516 0.226862 22.6549 6.10352e-05 23.0912 6.10352e-05H27.2706C28.2312 6.10352e-05 28.8301 1.03994 28.3514 1.87084C28.3512 1.87117 28.3514 1.8716 28.3518 1.8716Z" fill="url(#paint1_linear_747_516)"/>
<defs>
<linearGradient id="paint0_linear_747_516" x1="-1.855e-07" y1="3.91388" x2="12.8636" y2="11.5115" gradientUnits="userSpaceOnUse">
<stop stop-color="#00AAFF"/>
<stop offset="1" stop-color="#0026FF"/>
</linearGradient>
<linearGradient id="paint1_linear_747_516" x1="6.70557" y1="1.7796" x2="26.9789" y2="7.36877" gradientUnits="userSpaceOnUse">
<stop stop-color="#00AAFF"/>
<stop offset="1" stop-color="#0073FF"/>
</linearGradient>
</defs>
</svg>
